<svg version="1.1" id="livingroom" xmlns="http://www.w3.org/2000/svg" width="150px" height="auto"><style>.st0{fill:#fff}</style><path class="st0" d="M157.99 141.53h5.55c.37 0 .67-.3.67-.67v-3.36h-6.89v3.36c0 .38.3.67.67.67zM36.8 141.53h5.55c.37 0 .67-.3.67-.67v-3.36h-6.89v3.36c.01.38.3.67.67.67zM101.68 73.26v1.51h56.51c2.88 0 5.22 2.34 5.22 5.22v12.26c.38-.1.78-.17 1.19-.17h1.83V80c0-4.54-3.7-8.24-8.24-8.24h-58.02c.84-.01 1.51.67 1.51 1.5z"/><path class="st0" d="M36.93 92.25V80c0-2.88 2.34-5.22 5.22-5.22h56.51v-1.51c0-.83.68-1.51 1.51-1.51H42.15c-4.54 0-8.24 3.7-8.24 8.24v12.09h1.83c.41 0 .81.06 1.19.16z"/><path class="st0" d="M98.66 73.26v34.11c.56.27 1.08.63 1.51 1.08.43-.45.94-.81 1.51-1.08V73.26c0-.83-.68-1.51-1.51-1.51s-1.51.68-1.51 1.51z"/><path class="st0" d="M98.66 112.15a5.3 5.3 0 011.51-3.7c-.43-.45-.94-.81-1.51-1.08-.7-.34-1.48-.55-2.32-.55H40.49v3.02h55.86a2.305 2.305 0 012.31 2.31z"/><path class="st0" d="M101.68 107.37a5.3 5.3 0 00-3.02 4.78v1.21h3.02v-1.21c0-1.28 1.04-2.32 2.32-2.32h55.86v-3.02H104c-.83 0-1.61.21-2.32.56zM43.02 140.87c0 .37-.3.67-.67.67H36.8a.67.67 0 01-.67-.67v-3.36h-3.02v3.36c0 2.03 1.65 3.68 3.68 3.68h5.55c2.03 0 3.68-1.65 3.68-3.68v-3.36H43v3.36zM164.21 140.87c0 .37-.3.67-.67.67h-5.55a.67.67 0 01-.67-.67v-3.36h-3.02v3.36c0 2.03 1.65 3.68 3.68 3.68h5.55c2.03 0 3.68-1.65 3.68-3.68v-3.36h-3.02v3.36zM27.66 113.86V96.83c0-.95.77-1.73 1.73-1.73h6.36c.95 0 1.73.77 1.73 1.73v16.53h3.02V96.83c0-2.2-1.52-4.04-3.56-4.58-.38-.1-.78-.17-1.19-.17h-6.36c-2.62 0-4.75 2.13-4.75 4.74v32.75-11.02c0-2.07 1.24-3.86 3.02-4.69z"/><path class="st0" d="M170.96 92.09h-6.36c-.41 0-.81.07-1.19.17-2.04.53-3.56 2.37-3.56 4.58v16.53h3.02V96.83c0-.95.77-1.73 1.73-1.73h6.36c.95 0 1.73.77 1.73 1.73v17.03c1.78.83 3.02 2.62 3.02 4.71V96.83c0-2.62-2.13-4.74-4.75-4.74z"/><path class="st0" d="M172.69 113.86c-.67-.31-1.4-.5-2.19-.5H29.85c-.78 0-1.52.19-2.19.5-1.78.83-3.02 2.62-3.02 4.71v13.73a5.22 5.22 0 005.21 5.21H170.52a5.22 5.22 0 005.21-5.21v-13.73a5.25 5.25 0 00-3.04-4.71zm-2.19 20.63H29.84a2.19 2.19 0 01-2.19-2.19v-13.73c0-1.21.98-2.19 2.19-2.19H170.5c1.21 0 2.19.98 2.19 2.19v13.73c0 1.21-.98 2.19-2.19 2.19zM67.8 92.78l4.27 4.27c.29.29.68.44 1.07.44s.77-.15 1.07-.44c.59-.59.59-1.54 0-2.13l-4.27-4.27-2.14 2.13zM67.8 88.51l-4.27-4.27c-.59-.59-1.54-.59-2.13 0-.59.59-.59 1.54 0 2.13l4.27 4.27 2.13-2.13z"/><path class="st0" d="M74.2 84.24c-.59-.59-1.54-.59-2.13 0l-4.27 4.27-2.13 2.13-4.27 4.27a1.503 1.503 0 001.07 2.57c.39 0 .77-.15 1.07-.44l4.27-4.27 2.13-2.13 4.27-4.27c.58-.58.58-1.54-.01-2.13zM132.55 88.51l-4.27-4.27c-.59-.59-1.54-.59-2.13 0-.59.59-.59 1.54 0 2.13l4.27 4.27 2.13-2.13zM132.55 92.78l4.27 4.27c.29.29.68.44 1.07.44s.77-.15 1.07-.44c.59-.59.59-1.54 0-2.13l-4.27-4.27-2.14 2.13z"/><path class="st0" d="M138.95 84.24c-.59-.59-1.54-.59-2.13 0l-4.27 4.27-2.13 2.13-4.27 4.27a1.503 1.503 0 001.07 2.57c.39 0 .77-.15 1.07-.44l4.27-4.27 2.13-2.13 4.27-4.27c.58-.58.58-1.54-.01-2.13z"/></svg>
